# Blender v3.6.2 OBJ File: ''
# www.blender.org
mtllib forty_two.mtl
o Cube.001
v -0.133818 0.013370 0.232406
v -1.843098 0.484496 0.232406
v -1.843098 0.484496 -0.227475
v -0.133818 0.013370 -0.227475
v -0.133819 2.349982 0.232407
v -0.602814 2.349982 0.232406
v -0.602813 2.349982 -0.227475
v -0.133818 2.349982 -0.227475
v -1.843098 0.889684 0.232406
v -1.843098 0.889684 -0.227475
v -0.133819 0.924807 0.232407
v -1.297937 0.935504 0.232407
v -0.133818 0.924807 -0.227475
v -1.297937 0.935504 -0.227475
v -0.497195 0.007431 0.232406
v -0.477731 0.484496 0.232406
v -0.477731 0.484496 -0.227475
v -0.497194 0.007431 -0.227475
v 0.098523 0.498822 -0.227403
v 1.037620 0.498822 -0.227403
v 1.037620 0.498822 0.223704
v 0.098523 0.498822 0.223704
v 0.098523 2.349377 -0.227403
v 1.037620 2.349377 -0.227403
v 1.037620 2.349377 0.223704
v 0.098523 2.349377 0.223704
v 0.098523 1.100228 -0.227403
v 0.615513 1.781492 -0.227403
v 0.591499 2.334268 -0.227403
v 0.098523 1.737336 -0.227403
v 0.098523 1.737336 0.223704
v 0.591499 2.334269 0.223704
v 0.615513 1.781492 0.223704
v 0.098523 1.100228 0.223704
v 1.037620 1.864134 -0.227403
v 0.601425 1.163232 -0.227403
v 0.610319 0.545351 -0.227403
v 1.037620 1.154477 -0.227403
v 1.037620 1.864134 0.223704
v 0.601425 1.163232 0.223704
v 0.610319 0.545351 0.223704
v 1.037620 1.154477 0.223704
vn 0.0000 -1.0000 0.0000
vn 0.0000 1.0000 -0.0000
vn 0.0000 -0.0000 -1.0000
vn -0.7622 0.6474 0.0000
vn 1.0000 0.0000 0.0000
vn -1.0000 0.0000 0.0000
vn 0.7721 -0.6355 0.0000
vn 0.0092 1.0000 0.0000
vn 0.0163 -0.9999 0.0000
vn -0.9992 0.0408 -0.0000
vn -0.0000 0.0000 1.0000
vn 0.7711 -0.6368 0.0000
vn -0.9991 -0.0434 0.0000
vn -0.7966 0.6045 0.0000
vn 0.8490 -0.5284 0.0000
vn 0.9999 0.0144 -0.0000
vn -0.8187 0.5743 0.0000
usemtl None
s off
f 2//1 17//1 16//1
f 5//2 7//2 6//2
f 29//3 30//3 23//3
f 6//4 10//4 9//4
f 14//3 13//3 17//3
f 1//5 13//5 11//5
f 9//6 3//6 2//6
f 5//7 14//7 8//7
f 11//8 14//8 12//8
f 1//9 18//9 4//9
f 16//10 18//10 15//10
f 42//5 20//5 38//5
f 39//11 32//11 33//11
f 27//6 22//6 34//6
f 20//1 22//1 19//1
f 25//2 23//2 26//2
f 23//6 31//6 26//6
f 31//12 29//12 32//12
f 29//13 33//13 32//13
f 28//14 34//14 33//14
f 25//5 35//5 24//5
f 39//15 36//15 35//15
f 40//16 37//16 36//16
f 41//17 38//17 37//17
f 26//11 31//11 32//11
f 37//3 38//3 20//3
f 21//11 42//11 41//11
f 12//11 5//11 6//11
f 25//11 26//11 32//11
f 22//11 21//11 41//11
f 8//3 14//3 7//3
f 28//3 36//3 27//3
f 14//3 3//3 10//3
f 33//11 40//11 39//11
f 40//11 33//11 34//11
f 16//11 1//11 11//11
f 14//3 10//3 7//3
f 2//11 12//11 9//11
f 11//11 12//11 16//11
f 34//11 41//11 40//11
f 12//11 6//11 9//11
f 17//3 4//3 18//3
f 36//3 28//3 35//3
f 37//3 20//3 19//3
f 29//3 23//3 24//3
f 27//3 37//3 19//3
f 35//3 29//3 24//3
f 2//1 3//1 17//1
f 5//2 8//2 7//2
f 6//4 7//4 10//4
f 1//5 4//5 13//5
f 9//6 10//6 3//6
f 5//7 12//7 14//7
f 11//8 13//8 14//8
f 1//9 15//9 18//9
f 16//10 17//10 18//10
f 42//5 21//5 20//5
f 39//11 25//11 32//11
f 27//6 19//6 22//6
f 20//1 21//1 22//1
f 25//2 24//2 23//2
f 23//6 30//6 31//6
f 31//12 30//12 29//12
f 29//13 28//13 33//13
f 28//14 27//14 34//14
f 25//5 39//5 35//5
f 39//15 40//15 36//15
f 40//16 41//16 37//16
f 41//17 42//17 38//17
f 14//3 17//3 3//3
f 16//11 15//11 1//11
f 2//11 16//11 12//11
f 34//11 22//11 41//11
f 17//3 13//3 4//3
f 27//3 36//3 37//3
f 35//3 28//3 29//3
